<svg width="1280" height="1280" viewBox="0 0 1280 1280" fill="none" xmlns="http://www.w3.org/2000/svg">
<path d="M633.1 1.8C631.2 2.7 628.7 4.8 627.6 6.3C625.6 9.1 625.5 10.5 625.2 53.1C625 80.8 625.3 98.4 625.9 100.8C626.5 102.9 628.4 105.9 630 107.5C632.9 110.2 633.8 110.5 640 110.5C646.2 110.5 647.1 110.2 650 107.5C651.7 105.9 653.5 103 654.1 101C654.8 98.8 655 81.9 654.8 53.3C654.5 10.5 654.4 9.1 652.4 6.3C649.8 2.7 644.5 -1.64658e-06 640 -1.64658e-06C638.1 -1.64658e-06 635 0.799998 633.1 1.8Z" fill="black"/>
<path d="M323.3 84.0995C315.8 86.2995 311 94.9995 313.4 102C314.9 106.4 352 172.7 355.8 177.9C360.7 184.5 369.8 185.6 376.1 180.3C382.2 175.2 383.5 168.9 380 162C377.8 157.7 341.2 92.8995 338.9 89.1995C337.4 86.7995 330.4 82.8995 327.9 83.0995C327.1 83.0995 325.1 83.5995 323.3 84.0995Z" fill="black"/>
<path d="M946.2 84.6995C942.3 86.5995 941.2 88.2995 917.1 133.099C901.4 162.399 899 167.399 899 171.199C899 182.699 913.5 190.499 921.8 183.499C924.3 181.399 953 129.899 964.9 106.299C968.1 99.7995 967.7 93.8995 963.8 89.3995C958.4 83.2995 952.4 81.5995 946.2 84.6995Z" fill="black"/>
<path d="M668.5 154.4C665.2 155.2 660.8 156.5 658.7 157.3C655.1 158.9 655 159 655 164C655 166.9 655.3 169 655.8 168.8C673.9 159.7 686.4 160.1 691.5 170C695.8 178.3 692.6 184.2 671.9 205.7C655.3 223 655 223.3 655 227.6V232H679.5H704V227.5V223H685.9H667.8L682.6 207.7C700.2 189.6 703.3 184.8 703.3 175.4C703.3 170 702.8 168.1 700.3 164.2C694.9 155.5 681.8 151.4 668.5 154.4Z" fill="black"/>
<path d="M599 156.8L591.5 158.5L591.2 163.2C591 165.9 591.3 168 591.7 168C592.1 167.9 596.4 167.1 601.3 166.1L610 164.3V193.6V223H601.5H593V227.5V232H615H637V227.5V223H628.5H620V189V155L613.3 155.1C609.5 155.1 603.1 155.9 599 156.8Z" fill="black"/>
<path d="M1177.7 313.199C1175.1 314.099 1108.3 353.599 1101.3 358.299C1097.1 361.199 1095 364.999 1095 369.999C1095 378.299 1100.2 384.099 1108.2 384.699L1113.5 385.199L1151.5 362.599C1172.7 349.899 1190.9 338.399 1192.8 336.499C1199.1 329.699 1196.5 317.899 1187.6 313.899C1183 311.799 1181.7 311.699 1177.7 313.199Z" fill="black"/>
<path d="M90.8999 314.6C87.4999 316.8 84.2999 321.7 83.4999 326.2C82.4999 331.4 85.1999 336.3 90.8999 339.8C106.6 349.4 167.3 382.2 170.2 382.6C182 384.6 191.3 367.8 183.3 359C181 356.6 125.3 324.8 107 315.5C101.3 312.6 94.7999 312.3 90.8999 314.6Z" fill="black"/>
<path d="M1090.5 596C1088.3 596.6 1085.5 597.2 1084.3 597.5C1082.3 598 1082 598.7 1082 602.5C1082 605 1082.2 607 1082.5 607C1082.7 607 1085.5 606.3 1088.7 605.5C1091.8 604.7 1097.6 604 1101.6 604C1107.3 604 1109.4 604.4 1112.1 606.3C1116.5 609.3 1118.2 612.6 1117.6 617.3C1116.7 624.7 1111.1 628 1099.3 628H1093V632.4V636.8L1101.9 637.2C1112.1 637.6 1115.2 639.1 1118.4 645.4C1122.3 653.3 1117.8 662.6 1108.7 665.1C1102.7 666.7 1089.4 665.7 1083.6 663.2L1078.9 661.1L1079.2 666.3L1079.5 671.5L1084.5 672.8C1092.4 674.9 1104.1 675.4 1110.1 674C1122.3 671.2 1128.8 664.7 1129.7 654.1C1130.7 643.9 1126.9 637 1118.6 633.5L1114.8 631.9L1119.1 629.7C1121.5 628.5 1124.5 625.9 1125.8 624C1127.8 621 1128.1 619.5 1127.8 613.9C1127.1 601.6 1119.5 595.8 1103.5 595.3C1098.6 595.2 1092.7 595.5 1090.5 596Z" fill="black"/>
<path d="M163.9 599.399C152.9 603.299 147.2 613.299 148.2 626.799C149.3 641.699 158 649.999 172.8 649.999C178.9 649.999 183.1 648.399 187.7 644.599L191 641.799L190.4 645.199C188.2 657.499 184 664.899 177.3 667.599C173 669.399 164.5 669.399 158.4 667.499C155.7 666.699 153.4 665.999 153.3 665.999C153.1 665.999 153 667.999 153 670.399C153 674.499 153.3 674.899 156.3 675.999C162.2 678.099 172.2 678.399 178.2 676.599C188.6 673.599 197.1 663.199 199.9 650.199C203.3 633.999 198.9 611.799 190.8 604.299C184.7 598.599 172.4 596.299 163.9 599.399ZM181.9 608.699C186.5 612.199 188.5 616.799 188.5 623.999C188.5 636.099 182.6 642.499 172.2 641.699C168.4 641.399 166.3 640.699 164.4 638.899C155.2 630.299 156.6 613.099 167 607.699C171.3 605.499 178.1 605.899 181.9 608.699Z" fill="black"/>
<path d="M9.29998 626.1C-3.00002 629.7 -2.70002 650.5 9.79998 654C12.1 654.6 30.3 655 56.5 655C95.4 655 99.8 654.8 103 653.2C113 648.2 113.8 633.5 104.3 627.3C101.8 625.6 98.1 625.5 57 625.3C31.7 625.2 11.1 625.5 9.29998 626.1Z" fill="black"/>
<path d="M1175.3 626.899C1170.3 629.199 1167.6 633.699 1167.6 639.999C1167.6 646.499 1170.3 650.799 1175.6 653.099C1179.7 654.999 1182.2 655.099 1225.4 654.799C1269.6 654.499 1270.9 654.399 1273.7 652.399C1281.9 646.399 1281.9 633.599 1273.7 627.599C1270.9 625.599 1269.6 625.499 1225.2 625.299C1182 624.999 1179.3 625.099 1175.3 626.899Z" fill="black"/>
<path d="M128.4 917.5C107.3 930.1 89.0997 941.6 87.2997 943.5C80.5997 950.6 83.7997 962.9 93.3997 966.5C96.9997 967.9 98.4997 968 101.3 967.1C104.4 966.1 170.1 927.5 178.7 921.7C190.5 913.7 184.7 895 170.4 895C166.9 895 161.3 898 128.4 917.5Z" fill="black"/>
<path d="M1103.9 899.199C1096.5 903.399 1093.8 913.499 1098.3 919.999C1100 922.599 1109.2 928.299 1137.9 944.699C1158.5 956.399 1177 966.499 1179.1 967.099C1182.3 968.099 1183.4 967.999 1187.4 966.099C1198.9 960.499 1199.6 946.599 1188.8 939.899C1180.2 934.499 1120.4 900.599 1116.5 898.899C1111.3 896.499 1108.3 896.599 1103.9 899.199Z" fill="black"/>
<path d="M642.2 1058.4C625.9 1063.7 618 1080.6 620.1 1105.2C621.1 1116.6 624.2 1124.4 629.9 1130.1C634.9 1135.2 639.5 1137 647.4 1137C654.9 1137 660 1135 665.2 1130C671.1 1124.3 673.6 1116.8 672.6 1107.6C671.1 1092.8 662.4 1085 647.6 1085C641.4 1085 637.2 1086.7 632.8 1090.8C630.2 1093.2 630 1093.2 630 1091.4C630 1087.5 633.1 1077.4 635.5 1073.9C640.2 1066.8 650.7 1064.2 661.6 1067.5C664.3 1068.3 666.8 1069 667.3 1069C667.7 1069 668 1067 668 1064.5C668 1060.3 667.9 1060 664.3 1059C658.1 1057.1 647 1056.9 642.2 1058.4ZM655.1 1095.3C659.9 1098.5 662 1103.2 662 1111C661.9 1125.1 651.2 1133 640 1127.2C629.8 1121.9 629.3 1101.1 639.2 1095C643.8 1092.2 650.7 1092.3 655.1 1095.3Z" fill="black"/>
<path d="M904.8 1095C897.9 1098.7 894.7 1106 897.4 1112.4C899 1116.3 935.3 1181.5 940.2 1189.2C945.6 1197.8 955.5 1199 962.8 1191.9C966.6 1188.2 968.2 1183.2 966.9 1178.7C966.4 1177 956.2 1157.9 944.2 1136.5C920.7 1094.7 919.4 1093 912.1 1093C910.1 1093.1 906.8 1094 904.8 1095Z" fill="black"/>
<path d="M363.5 1098C361.4 1099.3 353.1 1111.9 336.6 1138.7C314.9 1173.8 312.6 1177.9 312.6 1182C312.4 1190.2 319 1196 328.4 1196C332.2 1196 333.6 1195.4 336.5 1192.7C340.3 1189.2 383.6 1119.7 385.6 1113.9C389.7 1102.2 374.2 1091.1 363.5 1098Z" fill="black"/>
<path d="M633.4 1168.9C630.3 1170.3 626.2 1175.7 625.5 1179.3C625.2 1181.1 625 1202.4 625.2 1226.7C625.5 1269.5 625.6 1270.9 627.6 1273.7C633.6 1281.9 646.4 1281.9 652.4 1273.7C654.4 1270.9 654.5 1269.5 654.8 1226.2C655 1197.3 654.8 1180.2 654.1 1178C653.5 1176 651.7 1173.1 650 1171.5C647.5 1169.1 646 1168.6 641.3 1168.3C638.1 1168.2 634.6 1168.4 633.4 1168.9Z" fill="black"/>
<line x1="648.5" y1="218.708" x2="648.5" y2="630" stroke="black" stroke-width="17"/>
<line x1="648.5" y1="402.591" x2="648.5" y2="630" stroke="black" stroke-width="6"/>
<line x1="648.5" y1="313" x2="648.5" y2="630" stroke="black" stroke-width="17"/>
<ellipse cx="648.5" cy="632" rx="32" ry="30.5" fill="black"/>
</svg>

</svg>
