<svg width="208" height="208" viewBox="0 0 208 208" fill="none" xmlns="http://www.w3.org/2000/svg">
<g clip-path="url(#clip0)">
<path d="M103.999 35.1001C124.799 35.1001 143.865 43.7667 157.732 57.2001L177.666 37.2667C159.032 18.6336 133.032 6.93359 103.999 6.93359C75.3986 6.93359 49.3986 18.6336 30.332 37.2671L50.2655 57.2005C64.132 43.3336 83.1986 35.1001 103.999 35.1001Z" fill="#F8B64C"/>
<path d="M50.2665 57.2001L30.3335 37.2666C11.7 56.3335 0 82.3335 0 110.934C0 139.534 11.7 165.534 30.3335 184.6L50.2669 164.667C36.4004 150.8 28.1669 131.733 28.1669 110.933C28.1665 90.1335 36.4 71.0666 50.2665 57.2001Z" fill="#F1543F"/>
<path d="M177.667 37.2666L157.734 57.2001C171.601 71.0666 179.834 90.1335 179.834 110.934C179.834 131.734 171.168 150.8 157.734 164.667L177.668 184.6C196.301 165.967 208.001 139.967 208.001 110.934C208.001 82.3335 196.301 56.3335 177.667 37.2666Z" fill="#3CD040"/>
<path d="M157.733 57.1996L138.666 76.2661C129.566 67.5996 117.433 61.9661 104 61.9661C90.5664 61.9661 77.9995 67.5996 69.333 76.2661L50.2656 57.1996C64.1326 43.3331 83.1991 35.0996 103.999 35.0996C124.799 35.0996 143.866 43.3331 157.733 57.1996Z" fill="#FFD15C"/>
<path d="M69.3345 145.6L50.268 164.666C36.4014 150.8 28.168 131.733 28.168 110.933C28.168 90.1327 36.8345 71.0662 50.268 57.1992L69.3345 76.2658C60.668 84.9323 55.0345 97.4992 55.0345 110.932C54.601 124.366 60.2345 136.933 69.3345 145.6Z" fill="#FF7058"/>
<path d="M179.835 110.933C179.835 131.733 171.168 150.8 157.735 164.667L138.668 145.6C147.334 136.5 152.968 124.366 152.968 110.933C152.968 97.5002 147.334 84.9333 138.668 76.2667L157.734 57.2002C171.601 71.0663 179.835 90.1333 179.835 110.933Z" fill="#5EE549"/>
<path d="M170.735 69.7666L114.401 112.667C113.535 117.867 109.201 121.333 104.001 121.333C97.9349 121.333 93.168 116.567 93.168 110.5C93.168 104.433 97.9345 99.6662 104.001 99.6662C105.301 99.6662 106.168 99.6662 107.468 100.1L170.735 69.7666Z" fill="#40596B"/>
<path d="M104.001 115.268C106.395 115.268 108.335 113.328 108.335 110.935C108.335 108.542 106.395 106.602 104.001 106.602C101.608 106.602 99.668 108.542 99.668 110.935C99.668 113.328 101.608 115.268 104.001 115.268Z" fill="white"/>
</g>
<defs>
<clipPath id="clip0">
<rect width="208" height="208" fill="white"/>
</clipPath>
</defs>
</svg>
